<?xml version="1.0" encoding="UTF-8"?>
<svg viewBox="0 0 150 29" xmlns="http://www.w3.org/2000/svg">
<path d="m69.939 16.586c0.6668 0 1.2518 0.1498 1.7825 0.4222 1.0105 0.5249 1.5279 1.2664 1.5976 2.4735l3e-4 0.0064 1e-4 0.0065c0 0.1234-0.1001 0.2235-0.2236 0.2235h-2.0943c-0.123 0-0.2297-0.0846-0.2577-0.2043l-0.0078-0.0324c-0.1359-0.5425-0.4211-0.7438-0.8651-0.7438-0.4762 0-0.8844 0.3405-0.8844 0.7899 0 0.5992 0.5443 0.8715 1.6464 1.3481 2.2178 0.9533 2.7756 1.7567 2.7756 3.0777 0 1.9474-1.3334 3.0913-3.5104 3.0913-2.1905 0-3.6329-1.1439-3.6329-3.3092l5e-4 -0.0149c0.0077-0.1134 0.1021-0.203 0.2174-0.203h2.1625c0.097 0 0.1779 0.0742 0.1863 0.1709l0.0033 0.0347c0.0727 0.7139 0.4642 1.1699 1.0493 1.1699 0.5306 0 0.9661-0.4222 0.9661-0.9669 0-0.6238-0.6727-0.9768-1.4002-1.2755l-0.0663-0.027c-0.0553-0.0224-0.1108-0.0445-0.1663-0.0665l-0.0665-0.0262c-0.1107-0.0436-0.2208-0.0867-0.3281-0.13-1.6463-0.6673-2.3947-1.5388-2.3947-2.8462 0-1.7158 1.66-2.9687 3.5105-2.9687h-1e-4zm27.667 0c1.3878 0 2.5035 0.3813 3.5105 1.2392 0.794 0.6816 1.324 1.439 1.58 2.2722l0.017 0.0556 6e-3 0.0243c5e-3 0.0244 8e-3 0.0493 8e-3 0.0743 0 0.188-0.148 0.3415-0.333 0.3512l-0.019 5e-4h-1.904c-0.206 0-0.394-0.1163-0.4866-0.3006-0.0161-0.0322-0.0309-0.0603-0.0443-0.0842-0.4877-0.8686-1.3337-1.3719-2.253-1.3719-1.6056 0-2.694 1.3755-2.694 2.9416 0 1.6342 1.1157 2.9959 2.7076 2.9959 0.9175 0 1.7141-0.4624 2.2512-1.3773 0.0079-0.0135 0.0164-0.0285 0.0256-0.0451 0.0925-0.1658 0.2635-0.2712 0.4525-0.2793l0.023-6e-4h1.967c0.032 0 0.064 0.0053 0.094 0.0155 0.15 0.0503 0.233 0.2084 0.192 0.3588l-5e-3 0.0166-0.023 0.0657c-0.756 2.159-2.7221 3.5063-4.95 3.5063-1.4014 0-2.7212-0.4903-3.7553-1.5116-1.0885-1.0622-1.5511-2.3423-1.5511-3.8675 0-2.6691 2.2995-5.0794 5.1839-5.0794v-2e-4zm-16.835 0.1907c0.3006 0 0.5443 0.2437 0.5443 0.5443v1.1719c0 0.3007-0.2437 0.5444-0.5443 0.5444h-1.4286v7.2724c0 0.3006-0.2437 0.5443-0.5443 0.5443h-1.4829c-0.3006 0-0.5443-0.2437-0.5443-0.5443v-7.2724h-1.4421c-0.3007 0-0.5444-0.2437-0.5444-0.5444v-1.1719c0-0.3006 0.2437-0.5443 0.5444-0.5443h5.4422zm6.692 0c0.2231 0 0.4236 0.1361 0.506 0.3435l3.5681 8.9886c0.0253 0.0639 0.0384 0.132 0.0384 0.2008 0 0.3006-0.2437 0.5443-0.5444 0.5443h-1.5962c-0.2338 0-0.4415-0.1492-0.516-0.3708l-0.3652-1.0863h-3.4968l-0.4002 1.0991c-0.0783 0.215-0.2827 0.3581-0.5115 0.3581h-1.5763c-0.0694 0-0.1381-0.0133-0.2026-0.0391-0.279-0.1119-0.4145-0.4288-0.3026-0.7079l3.6045-8.9886c0.0828-0.2064 0.2828-0.3417 0.5053-0.3417h1.2895zm19.049 0c0.3 0 0.544 0.2437 0.544 0.5443v3.9905l8e-3 -7e-4c0.014-0.0024 0.026-0.0104 0.034-0.0224l2.669-4.2566c0.099-0.1588 0.274-0.2552 0.461-0.2552h1.379c0.107 0 0.211 0.0316 0.3 0.0908 0.251 0.1662 0.319 0.504 0.153 0.7545l-2.773 4.1798 2.949 4.1949c0.064 0.0917 0.099 0.201 0.099 0.313 0 0.3006-0.244 0.5444-0.544 0.5444h-1.659c-0.187 0-0.361-0.0959-0.461-0.254l-2.588-4.1038-6e-3 7e-4c-0.012 0.0028-0.021 0.0136-0.021 0.0265v3.7862c0 0.3007-0.244 0.5444-0.544 0.5444h-1.483c-0.301 0-0.545-0.2437-0.545-0.5444v-8.9886c0-0.3006 0.244-0.5443 0.545-0.5443h1.483zm-19.713 3.1321-1.0341 3.4454h2.1089l-1.0341-3.4318-0.0408-0.0136h1e-4zm49.415-17.486c2.111 0 4.151 1.3277 4.889 3.1427l0.022 0.05515 6e-3 0.01908c8e-3 0.02572 0.012 0.05251 0.012 0.07948 0 0.14437-0.112 0.26242-0.255 0.27096l-0.016 5e-4h-2.211c-0.18 0-0.348-0.08888-0.449-0.23747-0.025-0.0355-0.046-0.06558-0.065-0.09026-0.48-0.62709-1.17-0.97958-2.001-0.97958-1.619 0-2.748 1.3073-2.748 2.9278 0 1.675 1.061 3.0231 2.762 3.0231 1.183 0 2.074-0.5717 2.397-1.5838l0.011-0.03677h-2.462c-0.294 0-0.533-0.23251-0.544-0.52346l-1e-3 -0.02088v-0.96761c0-0.29364 0.233-0.53297 0.524-0.54394l0.021-4e-4h4.898c0.293 0 0.533 0.23251 0.544 0.52346v0.02088 0.02762c0 2.71-1.986 5.3656-5.374 5.3656-2.98 0-5.347-2.3287-5.347-5.2838 0-3.0505 2.462-5.1885 5.388-5.1885l-1e-3 1.2e-4zm10.314 0c0.666 0 1.251 0.14979 1.782 0.42215 0.997 0.51762 1.514 1.2459 1.595 2.4235l3e-3 0.05003v0.00644 0.00644c0 0.11832-0.092 0.21516-0.208 0.22303l-0.015 5.2e-4h-2.095c-0.117 0-0.22-0.07714-0.253-0.18827l-4e-3 -0.0161-8e-3 -0.03231c-0.136-0.54258-0.421-0.74382-0.865-0.74382-0.477 0-0.885 0.34045-0.885 0.78984 0 0.59919 0.545 0.87155 1.647 1.3481 2.218 0.95326 2.775 1.7567 2.775 3.0777 0 1.9474-1.333 3.0912-3.51 3.0912-2.169 0-3.604-1.1211-3.633-3.2445v-0.06465l1e-3 -0.01492c7e-3 -0.10845 0.094-0.19513 0.202-0.20247l0.015-5e-4h2.162c0.092 0 0.17 0.0666 0.185 0.15579l2e-3 0.01507 3e-3 0.03474c0.073 0.71386 0.464 1.1699 1.049 1.1699 0.531 0 0.966-0.4222 0.966-0.96685 0-0.60437-0.631-0.95447-1.332-1.2474l-0.068-0.02817-0.066-0.02701c-0.011-0.00448-0.022-0.00895-0.033-0.01341l-0.067-0.02663c-0.022-0.00885-0.044-0.01765-0.066-0.02643l-0.067-0.02625c-0.022-0.00873-0.044-0.01744-0.066-0.02612l-0.066-0.02602c-0.066-0.02598-0.132-0.05187-0.196-0.07783-1.646-0.66728-2.395-1.5388-2.395-2.8462 0-1.7158 1.66-2.9687 3.511-2.9687v1e-4zm-24.224 0.19065c0.181 0 0.35 0.09013 0.451 0.23943l0.012 0.0198 3.76 6.114-0.1-5.8196v-0.00929c0-0.29364 0.233-0.53297 0.524-0.54394l0.021-3.9e-4h1.364c0.294 0 0.533 0.2325 0.544 0.52345v0.02088 8.9886c0 0.2936-0.232 0.533-0.523 0.5439l-0.021 4e-4h-1.386c-0.179 0-0.346-0.0881-0.448-0.2346l-0.013-0.0203-3.704-5.9004 0.062 5.6049v0.0061c0 0.2936-0.233 0.5329-0.524 0.5439l-0.02 4e-4h-1.368c-0.294 0-0.533-0.2325-0.544-0.5235l-1e-3 -0.0208v-8.9887c0-0.29363 0.233-0.53297 0.524-0.54394l0.021-3.9e-4h1.369v2e-5zm-50.053 0c0.2937 0 0.533 0.2325 0.544 0.52345l4e-4 0.02088v1.172c0 0.29364-0.2325 0.53297-0.5235 0.54394l-0.0209 4e-4h-1.4285v7.2724c0 0.2936-0.2325 0.5329-0.5235 0.5439l-0.0208 4e-4h-1.4829c-0.2936 0-0.533-0.2325-0.5439-0.5235l-4e-4 -0.0208v-7.2725h-1.4421c-0.2937 0-0.533-0.2325-0.544-0.52346l-4e-4 -0.02088v-1.172c0-0.29364 0.2325-0.53298 0.5235-0.54395l0.0209-3.9e-4h5.4423l-2e-4 1e-5zm4.15 0c0.2936 0 0.5329 0.2325 0.5439 0.52345l4e-4 0.02088v3.2415h3.2927v-3.2415c0-0.29363 0.2325-0.53297 0.5234-0.54394l0.0209-3.9e-4h1.4829c0.2936 0 0.5329 0.2325 0.5439 0.52346l4e-4 0.02088v8.9886c0 0.2936-0.2325 0.533-0.5235 0.5439l-0.0208 4e-4h-1.4829c-0.2936 0-0.533-0.2325-0.5439-0.5234l-4e-4 -0.0209v-3.4866h-3.2927v3.4866c0 0.2936-0.2325 0.533-0.5235 0.5439l-0.0208 4e-4h-1.4829c-0.2936 0-0.533-0.2325-0.5439-0.5234l-4e-4 -0.0209v-8.9886c0-0.29364 0.2325-0.53297 0.5234-0.54394l0.0209-3.9e-4h1.4829zm13.824 0c0.2936 0 0.5329 0.2325 0.5439 0.52345l4e-4 0.02088v1.172c0 0.29364-0.2325 0.53297-0.5235 0.54394l-0.0209 4e-4h-2.585v1.5661h2.4898c0.2937 0 0.533 0.2325 0.544 0.52346l4e-4 0.02088v1.172c0 0.29364-0.2325 0.53298-0.5235 0.54395l-0.0209 3.9e-4h-2.4898v1.7295h2.585c0.2937 0 0.533 0.2325 0.544 0.5235l4e-4 0.0208v1.172c0 0.2936-0.2325 0.533-0.5235 0.5439l-0.0209 4e-4h-4.5034c-0.2936 0-0.533-0.2325-0.5439-0.5234l-4e-4 -0.0209v-8.9886c0-0.29364 0.2325-0.53297 0.5234-0.54394l0.0209-4e-4h4.5034l1e-4 -2.1e-4zm12.3 0c0.294 0 0.533 0.2325 0.544 0.52345v0.02088 1.172c0 0.29364-0.232 0.53297-0.523 0.54394l-0.021 4e-4h-1.429v7.2724c0 0.2936-0.232 0.5329-0.523 0.5439l-0.021 4e-4h-1.4829c-0.2936 0-0.5329-0.2325-0.5439-0.5235l-4e-4 -0.0208v-7.2725h-1.4421c-0.2937 0-0.533-0.2325-0.544-0.52346l-4e-4 -0.02088v-1.172c0-0.29364 0.2325-0.53298 0.5235-0.54395l0.0209-3.9e-4h5.4423v1e-5zm4.15 0c0.293 0 0.533 0.2325 0.544 0.52345v0.02088 3.2415h3.293v-3.2415c0-0.29363 0.232-0.53297 0.523-0.54394l0.021-3.9e-4h1.483c0.294 0 0.533 0.2325 0.544 0.52346v0.02088 8.9886c0 0.2936-0.232 0.533-0.523 0.5439l-0.021 4e-4h-1.483c-0.294 0-0.533-0.2325-0.544-0.5234v-0.0209-3.4866h-3.293v3.4866c0 0.2936-0.232 0.533-0.523 0.5439l-0.021 4e-4h-1.483c-0.294 0-0.533-0.2325-0.544-0.5234v-0.0209-8.9886c0-0.29364 0.232-0.53297 0.523-0.54394l0.021-3.9e-4h1.483zm10.804 0c0.293 0 0.533 0.2325 0.543 0.52345l1e-3 0.02088v8.9886c0 0.2936-0.233 0.533-0.524 0.5439l-0.02 4e-4h-1.483c-0.294 0-0.533-0.2325-0.544-0.5234l-1e-3 -0.0209v-8.9886c0-0.29364 0.233-0.53297 0.524-0.54394l0.021-3.9e-4h1.483z" fill="#fff"/>
<path d="m11.369 11.008c-0.7687-1.5762-0.1141-3.4772 1.4621-4.246l11.416-5.5681c1.3251-0.64624 2.8796-0.28672 3.7981 0.78058 0.1814 0.21073 0.0886 0.52403-0.1613 0.6459l-5.3845 2.6262c-2.4147 1.1777-3.4175 4.0899-2.2398 6.5045l6.2258 12.764c0.3047 0.6248 0.0452 1.3784-0.5796 1.6831l-2.9041 1.4165c-1.5763 0.7688-3.4773 0.1142-4.2461-1.462l-7.3869-15.145zm22.204-4.2441c-1.5762 0.76879-2.2308 2.6698-1.4621 4.246l7.3868 15.145c0.7689 1.5762 2.6699 2.2308 4.2461 1.462l11.416-5.5681c1.5763-0.7688 2.2308-2.6697 1.4621-4.246l-7.3868-15.145c-0.7688-1.5762-2.6699-2.2308-4.2461-1.462l-11.416 5.5681zm-10.332 1.2e-4c-1.5762 0.76879-2.2308 2.6698-1.462 4.246l7.3868 15.145c0.7688 1.5762 2.6698 2.2308 4.246 1.462l2.8432-1.3867c0.6248-0.3047 0.8843-1.0582 0.5795-1.683l-6.2415-12.797c-1.1777-2.4146-0.1749-5.3268 2.2398-6.5045l5.4369-2.6518c0.2518-0.12281 0.3435-0.43959 0.1579-0.64947-0.9219-1.0425-2.4585-1.3885-3.7702-0.74869l-11.416 5.5681zm-20.781 0.00112c-1.5762 0.76879-2.2308 2.6698-1.4621 4.246l7.3869 15.145c0.76875 1.5762 2.6698 2.2307 4.2461 1.4619l2.876-1.4027c0.6248-0.3047 0.8843-1.0583 0.5795-1.6831l-6.2351-12.784c-1.1777-2.4146-0.17496-5.3268 2.2398-6.5045l5.4076-2.6375c0.251-0.12243 0.3431-0.43778 0.1593-0.64801-0.9205-1.0526-2.4645-1.4041-3.7817-0.76168l-11.416 5.5681z" clip-rule="evenodd" fill="#fff" fill-rule="evenodd"/>
</svg>
