<?xml version="1.0" encoding="UTF-8"?>
<svg fill="none" viewBox="0 0 150 73" xmlns="http://www.w3.org/2000/svg">
<path d="m28.504 27.021c-2.0493-4.2019-0.3043-9.2697 3.8977-11.319l30.434-14.844c3.5324-1.7228 7.6763-0.76436 10.125 2.0809 0.4834 0.56176 0.2362 1.397-0.43 1.7219l-14.354 7.001c-6.4371 3.1396-9.1102 10.903-5.9707 17.34l16.597 34.028c0.8123 1.6656 0.1207 3.6744-1.5449 4.4868l-7.742 3.776c-4.202 2.0495-9.2698 0.3045-11.319-3.8974l-19.692-40.374zm59.192-11.314c-4.2019 2.0495-5.9469 7.1172-3.8975 11.319l19.692 40.374c2.049 4.2019 7.117 5.9469 11.319 3.8974l30.434-14.844c4.202-2.0494 5.947-7.117 3.897-11.319l-19.691-40.374c-2.05-4.2019-7.118-5.9468-11.32-3.8974l-30.434 14.844zm-27.541 2e-4c-4.2019 2.0494-5.9469 7.1172-3.8975 11.319l19.692 40.374c2.0495 4.2019 7.1173 5.9468 11.319 3.8974l7.5794-3.6967c1.6656-0.8124 2.3572-2.8211 1.5449-4.4867l-16.639-34.115c-3.1394-6.4369-0.4662-14.2 5.9709-17.34l14.494-7.0691c0.672-0.32741 0.916-1.1719 0.421-1.7314-2.4572-2.7792-6.5536-3.7014-10.05-1.9959l-30.434 14.844zm-55.4 3e-3c-4.202 2.0494-5.947 7.1172-3.8976 11.319l19.692 40.374c2.0493 4.2019 7.1171 5.9469 11.319 3.8974l7.667-3.7395c1.6656-0.8123 2.3573-2.8211 1.5449-4.4867l-16.622-34.079c-3.1395-6.437-0.4664-14.2 5.9708-17.34l14.416-7.031c0.6692-0.32637 0.9148-1.167 0.4247-1.7275-2.454-2.8061-6.5699-3.7431-10.081-2.0305l-30.434 14.844z" clip-rule="evenodd" fill="#fff" fill-rule="evenodd"/>
</svg>
