<svg width="188" height="42" viewBox="0 0 188 42" fill="none" xmlns="http://www.w3.org/2000/svg">
<path fill-rule="evenodd" clip-rule="evenodd" d="M23.691 11.6345C26.0208 11.6345 28.1936 12.3202 30.0207 13.4978L30.9386 12.1935C28.8515 10.8346 26.3623 10.0409 23.6909 10.0409C21.1329 10.0409 18.7432 10.7666 16.7133 12.0205L17.6263 13.3277C19.3963 12.2537 21.4721 11.6344 23.6909 11.6344L23.691 11.6345ZM13.874 7.95736L15.0911 9.69967C17.5819 8.1226 20.5303 7.20476 23.6915 7.20476C26.9707 7.20476 30.0217 8.19097 32.5699 9.87945L33.7945 8.14055C30.8994 6.20877 27.425 5.08018 23.6917 5.08018C20.0785 5.08018 16.7108 6.13929 13.8748 7.95744" fill="#38A2CF"/>
<path fill-rule="evenodd" clip-rule="evenodd" d="M23.6916 2.65603C27.9454 2.65603 31.9021 3.94311 35.1966 6.14653L36.7276 3.97448C32.9992 1.46566 28.5131 0 23.6916 0C18.9971 0 14.6243 1.39325 10.9565 3.78057L12.4777 5.95898C15.7142 3.87252 19.5619 2.65603 23.6913 2.65603H23.6916ZM23.9932 34.8414C21.6614 34.8414 19.4895 34.1549 17.6616 32.9773L16.7444 34.2816C18.8319 35.6416 21.3211 36.435 23.9932 36.435C26.5497 36.435 28.9397 35.7096 30.9704 34.4558L30.0574 33.1486C28.2871 34.2226 26.2104 34.8415 23.9932 34.8415V34.8414ZM33.8093 38.5181L32.591 36.7766C30.1015 38.3534 27.1534 39.2701 23.993 39.2701C20.7139 39.2701 17.6618 38.285 15.1139 36.5972L13.8901 38.335C16.7848 40.266 20.2591 41.3947 23.9929 41.3947C27.6053 41.3947 30.9723 40.3356 33.809 38.5181" fill="#38A2CF"/>
<path fill-rule="evenodd" clip-rule="evenodd" d="M0 31.1833V9.85423H5.33485V26.6914H13.6723V31.1833H0Z" fill="#0A0B09"/>
<path fill-rule="evenodd" clip-rule="evenodd" d="M35.4682 31.1841V9.85506H46.1434C51.2976 9.85506 53.8769 12.1923 53.8769 16.8649C53.8769 18.2431 53.4748 19.4469 52.6781 20.475C51.881 21.503 50.8099 22.2187 49.4689 22.6175L54.3553 31.1845H48.391L44.1944 23.5169H40.8041V31.1845H35.4686L35.4682 31.1841ZM40.8041 13.8098V19.5614H45.6905C47.5932 19.5614 48.5417 18.602 48.5417 16.686C48.5417 14.7684 47.5932 13.8098 45.6905 13.8098H40.8041ZM70.4128 19.4414V27.8608C70.4128 29.3583 70.5508 30.4678 70.8321 31.1846H66.5139C66.3549 30.6868 66.2555 30.136 66.2165 29.5373H66.1563C65.7774 30.136 65.0874 30.6349 64.0868 31.0363C63.1674 31.4164 62.2578 31.6055 61.3601 31.6055C59.7821 31.6055 58.5096 31.1966 57.5517 30.3775C56.5302 29.5161 56.0212 28.3489 56.0212 26.8708C56.0212 25.0534 56.7494 23.6759 58.2115 22.7383C59.4499 21.9381 61.4506 21.3488 64.208 20.9709L65.9154 20.7306V19.4107C65.9154 18.2727 65.1778 17.7047 63.6982 17.7047C62.9389 17.7047 62.37 17.8642 61.9903 18.1838C61.6111 18.5044 61.3601 19.0519 61.24 19.8307H56.7411C56.8391 16.4968 59.0306 14.8285 63.3099 14.8285C65.648 14.8285 67.3771 15.1484 68.4928 15.7864C69.775 16.5259 70.4128 17.7446 70.4128 19.4417L70.4128 19.4414ZM65.9154 24.5344V23.4274L62.7664 24.3243C61.2696 24.7444 60.5189 25.4332 60.5189 26.3921C60.5189 27.5888 61.2482 28.1875 62.71 28.1875C63.6671 28.1875 64.4443 27.8732 65.0304 27.2446C65.6218 26.6172 65.9154 25.7135 65.9154 24.5344V24.5344ZM23.8409 14.8279C26.3821 14.8279 28.4306 15.5675 29.9877 17.0433C31.5482 18.5221 32.325 20.5783 32.325 23.215C32.325 25.8516 31.5481 27.9077 29.9877 29.3858C28.4307 30.8638 26.3821 31.603 23.8409 31.603C21.3008 31.603 19.2519 30.8638 17.6944 29.3858C16.1339 27.9077 15.3574 25.8515 15.3574 23.215C15.3574 20.5784 16.1339 18.5222 17.6944 17.0433C19.2519 15.5675 21.3008 14.8279 23.8409 14.8279ZM23.8409 18.3932C22.5602 18.3932 21.5941 18.8552 20.9339 19.7793C20.3347 20.6232 20.0325 21.7687 20.0325 23.215C20.0325 24.6624 20.3347 25.8078 20.9339 26.6513C21.5941 27.5766 22.5602 28.0374 23.8409 28.0374C26.3821 28.0374 27.6496 26.3706 27.6496 23.0348C27.6496 21.6681 27.3474 20.5735 26.7486 19.7494C26.0712 18.845 25.1006 18.3932 23.8409 18.3932" fill="#0A0B09"/>
<path d="M73.7512 16.9877V14.5023H75.0107C75.1118 14.5023 75.2218 14.5315 75.3408 14.5899C75.4598 14.646 75.5608 14.7336 75.6439 14.8525C75.7292 14.9693 75.7718 15.1175 75.7718 15.2971C75.7718 15.4789 75.7281 15.6339 75.6405 15.7618C75.5529 15.8876 75.4463 15.983 75.3206 16.0481C75.1971 16.1132 75.0803 16.1458 74.9703 16.1458H74.061V15.7416H74.8019C74.876 15.7416 74.9557 15.7046 75.041 15.6305C75.1286 15.5564 75.1724 15.4453 75.1724 15.2971C75.1724 15.1444 75.1286 15.0411 75.041 14.9873C74.9557 14.9334 74.8805 14.9064 74.8154 14.9064H74.2968V16.9877H73.7512ZM75.2532 15.8157L75.8729 16.9877H75.2734L74.6672 15.8157H75.2532ZM74.6942 18.4695C74.3215 18.4695 73.9724 18.3999 73.6468 18.2607C73.3213 18.1215 73.035 17.9284 72.788 17.6814C72.5411 17.4345 72.348 17.1482 72.2088 16.8227C72.0696 16.4971 72 16.148 72 15.7753C72 15.4026 72.0696 15.0535 72.2088 14.7279C72.348 14.4024 72.5411 14.1161 72.788 13.8692C73.035 13.6222 73.3213 13.4291 73.6468 13.2899C73.9724 13.1507 74.3215 13.0811 74.6942 13.0811C75.0669 13.0811 75.416 13.1507 75.7415 13.2899C76.0671 13.4291 76.3533 13.6222 76.6003 13.8692C76.8473 14.1161 77.0403 14.4024 77.1795 14.7279C77.3187 15.0535 77.3883 15.4026 77.3883 15.7753C77.3883 16.148 77.3187 16.4971 77.1795 16.8227C77.0403 17.1482 76.8473 17.4345 76.6003 17.6814C76.3533 17.9284 76.0671 18.1215 75.7415 18.2607C75.416 18.3999 75.0669 18.4695 74.6942 18.4695ZM74.6942 17.8229C75.0714 17.8229 75.4149 17.7308 75.7247 17.5467C76.0345 17.3626 76.2815 17.1157 76.4656 16.8058C76.6497 16.496 76.7417 16.1525 76.7417 15.7753C76.7417 15.3981 76.6497 15.0546 76.4656 14.7448C76.2815 14.435 76.0345 14.188 75.7247 14.0039C75.4149 13.8198 75.0714 13.7277 74.6942 13.7277C74.317 13.7277 73.9735 13.8198 73.6637 14.0039C73.3538 14.188 73.1069 14.435 72.9228 14.7448C72.7387 15.0546 72.6466 15.3981 72.6466 15.7753C72.6466 16.1525 72.7387 16.496 72.9228 16.8058C73.1069 17.1157 73.3538 17.3626 73.6637 17.5467C73.9735 17.7308 74.317 17.8229 74.6942 17.8229Z" fill="#0A0B09"/>
<rect x="88.3882" y="0.697334" width="1" height="40" fill="#0A0B09"/>
<path d="M117.221 18.1973H115.019C114.889 17.564 114.661 17.0077 114.335 16.5283C114.016 16.0489 113.625 15.6464 113.163 15.3209C112.708 14.9895 112.202 14.7409 111.645 14.5752C111.089 14.4094 110.509 14.3266 109.905 14.3266C108.804 14.3266 107.807 14.6048 106.913 15.1611C106.026 15.7174 105.318 16.5372 104.792 17.6203C104.271 18.7034 104.01 20.0321 104.01 21.6064C104.01 23.1808 104.271 24.5095 104.792 25.5926C105.318 26.6757 106.026 27.4954 106.913 28.0517C107.807 28.6081 108.804 28.8862 109.905 28.8862C110.509 28.8862 111.089 28.8034 111.645 28.6377C112.202 28.4719 112.708 28.2263 113.163 27.9008C113.625 27.5694 114.016 27.1639 114.335 26.6845C114.661 26.1992 114.889 25.6429 115.019 25.0155H117.221C117.055 25.9447 116.753 26.7763 116.315 27.5102C115.877 28.2441 115.333 28.8685 114.682 29.3834C114.03 29.8924 113.3 30.2801 112.489 30.5464C111.684 30.8127 110.823 30.9459 109.905 30.9459C108.355 30.9459 106.976 30.5671 105.768 29.8095C104.561 29.052 103.611 27.9748 102.918 26.578C102.226 25.1812 101.88 23.524 101.88 21.6064C101.88 19.6888 102.226 18.0316 102.918 16.6348C103.611 15.238 104.561 14.1609 105.768 13.4033C106.976 12.6457 108.355 12.2669 109.905 12.2669C110.823 12.2669 111.684 12.4001 112.489 12.6664C113.3 12.9328 114.03 13.3234 114.682 13.8383C115.333 14.3473 115.877 14.9688 116.315 15.7027C116.753 16.4306 117.055 17.2622 117.221 18.1973ZM120.528 30.6973V12.5155H122.73V28.7442H131.182V30.6973H120.528ZM148.974 21.6064C148.974 23.524 148.628 25.1812 147.935 26.578C147.243 27.9748 146.293 29.052 145.085 29.8095C143.878 30.5671 142.499 30.9459 140.948 30.9459C139.398 30.9459 138.019 30.5671 136.811 29.8095C135.604 29.052 134.654 27.9748 133.961 26.578C133.269 25.1812 132.923 23.524 132.923 21.6064C132.923 19.6888 133.269 18.0316 133.961 16.6348C134.654 15.238 135.604 14.1609 136.811 13.4033C138.019 12.6457 139.398 12.2669 140.948 12.2669C142.499 12.2669 143.878 12.6457 145.085 13.4033C146.293 14.1609 147.243 15.238 147.935 16.6348C148.628 18.0316 148.974 19.6888 148.974 21.6064ZM146.843 21.6064C146.843 20.0321 146.58 18.7034 146.053 17.6203C145.532 16.5372 144.825 15.7174 143.931 15.1611C143.043 14.6048 142.049 14.3266 140.948 14.3266C139.847 14.3266 138.85 14.6048 137.956 15.1611C137.069 15.7174 136.361 16.5372 135.835 17.6203C135.314 18.7034 135.053 20.0321 135.053 21.6064C135.053 23.1808 135.314 24.5095 135.835 25.5926C136.361 26.6757 137.069 27.4954 137.956 28.0517C138.85 28.6081 139.847 28.8862 140.948 28.8862C142.049 28.8862 143.043 28.6081 143.931 28.0517C144.825 27.4954 145.532 26.6757 146.053 25.5926C146.58 24.5095 146.843 23.1808 146.843 21.6064ZM164.358 12.5155H166.559V24.5539C166.559 25.7968 166.266 26.9065 165.68 27.8831C165.1 28.8537 164.281 29.6201 163.221 30.1824C162.162 30.7388 160.919 31.0169 159.493 31.0169C158.066 31.0169 156.823 30.7388 155.764 30.1824C154.704 29.6201 153.882 28.8537 153.296 27.8831C152.716 26.9065 152.426 25.7968 152.426 24.5539V12.5155H154.628V24.3763C154.628 25.2641 154.823 26.0542 155.213 26.7467C155.604 27.4332 156.16 27.9748 156.883 28.3713C157.61 28.762 158.481 28.9573 159.493 28.9573C160.505 28.9573 161.375 28.762 162.103 28.3713C162.831 27.9748 163.387 27.4332 163.772 26.7467C164.162 26.0542 164.358 25.2641 164.358 24.3763V12.5155ZM176.317 30.6973H170.706V12.5155H176.565C178.329 12.5155 179.838 12.8795 181.093 13.6075C182.348 14.3295 183.31 15.3683 183.978 16.7236C184.647 18.073 184.982 19.6888 184.982 21.5709C184.982 23.4648 184.644 25.0954 183.97 26.4626C183.295 27.8239 182.312 28.8715 181.022 29.6054C179.732 30.3333 178.163 30.6973 176.317 30.6973ZM172.908 28.7442H176.175C177.678 28.7442 178.924 28.4542 179.912 27.8742C180.901 27.2942 181.638 26.4685 182.123 25.3973C182.608 24.326 182.851 23.0505 182.851 21.5709C182.851 20.1031 182.611 18.8395 182.132 17.7801C181.652 16.7147 180.936 15.898 179.983 15.3298C179.031 14.7557 177.844 14.4686 176.423 14.4686H172.908V28.7442Z" fill="#0A0B09"/>
</svg>
